<svg width="133" height="40" viewBox="0 0 133 40" fill="none" xmlns="http://www.w3.org/2000/svg">
<path d="M9.38412 5.73599C14.6001 5.73599 18.7761 6.91999 21.9121 9.28799C25.0801 11.624 26.6641 15.928 26.6641 22.2C26.6641 28.376 25.1281 32.728 22.0561 35.256C18.9841 37.752 15.0001 39 10.1041 39H0.120117V5.73599H9.38412ZM7.99212 11.448V33.288H10.5841C13.1761 33.288 15.1441 32.488 16.4881 30.888C17.8321 29.256 18.5041 26.36 18.5041 22.2C18.5041 19.352 18.1681 17.144 17.4961 15.576C16.8241 14.008 15.9121 12.936 14.7601 12.36C13.6081 11.752 12.1841 11.448 10.4881 11.448H7.99212Z" fill="#141414"/>
<path d="M38.8257 13.512V39H31.2417V13.512H38.8257ZM34.9857 0.071991C36.2977 0.071991 37.3697 0.487991 38.2017 1.31999C39.0657 2.11999 39.4977 3.14399 39.4977 4.39199C39.4977 5.63999 39.0657 6.67999 38.2017 7.51199C37.3697 8.31199 36.2977 8.71199 34.9857 8.71199C33.6737 8.71199 32.6017 8.31199 31.7697 7.51199C30.9377 6.67999 30.5217 5.63999 30.5217 4.39199C30.5217 3.14399 30.9377 2.11999 31.7697 1.31999C32.6017 0.487991 33.6737 0.071991 34.9857 0.071991Z" fill="#141414"/>
<path d="M58.6126 12.792C59.5406 12.792 60.3886 12.904 61.1566 13.128L59.9566 20.472C58.9966 20.248 58.2286 20.136 57.6526 20.136C56.1486 20.136 54.9966 20.664 54.1966 21.72C53.4286 22.744 52.8206 24.296 52.3726 26.376V39H44.7886V13.512H51.4126L52.0366 18.456C52.6126 16.696 53.4766 15.32 54.6286 14.328C55.8126 13.304 57.1406 12.792 58.6126 12.792Z" fill="#141414"/>
<path d="M73.6411 12.696C75.4011 12.696 76.9851 12.952 78.3931 13.464C79.8011 13.976 81.1291 14.76 82.3771 15.816L79.1131 20.328C77.5131 19.112 75.8971 18.504 74.2651 18.504C72.5691 18.504 71.2891 19.128 70.4251 20.376C69.5611 21.624 69.1291 23.64 69.1291 26.424C69.1291 29.112 69.5611 31.016 70.4251 32.136C71.2891 33.256 72.5371 33.816 74.1691 33.816C75.0331 33.816 75.8171 33.688 76.5211 33.432C77.2251 33.144 78.0731 32.696 79.0651 32.088L82.3771 36.792C79.8491 38.808 76.9851 39.816 73.7851 39.816C71.1931 39.816 68.9531 39.272 67.0651 38.184C65.1771 37.064 63.7211 35.512 62.6971 33.528C61.6731 31.512 61.1611 29.16 61.1611 26.472C61.1611 23.784 61.6731 21.4 62.6971 19.32C63.7211 17.24 65.1771 15.624 67.0651 14.472C68.9531 13.288 71.1451 12.696 73.6411 12.696Z" fill="#141414"/>
<path d="M106.856 25.752C106.856 26.808 106.808 27.72 106.712 28.488H90.9204C91.1764 30.632 91.7844 32.136 92.7444 33C93.7044 33.864 95.0324 34.296 96.7284 34.296C97.7524 34.296 98.7444 34.12 99.7044 33.768C100.664 33.384 101.704 32.808 102.824 32.04L105.944 36.264C102.968 38.632 99.6564 39.816 96.0084 39.816C91.8804 39.816 88.7124 38.6 86.5044 36.168C84.2964 33.736 83.1924 30.472 83.1924 26.376C83.1924 23.784 83.6564 21.464 84.5844 19.416C85.5124 17.336 86.8724 15.704 88.6644 14.52C90.4564 13.304 92.6004 12.696 95.0964 12.696C98.7764 12.696 101.656 13.848 103.736 16.152C105.816 18.456 106.856 21.656 106.856 25.752ZM99.4164 23.592C99.3524 19.688 97.9764 17.736 95.2884 17.736C93.9764 17.736 92.9524 18.216 92.2164 19.176C91.5124 20.136 91.0804 21.72 90.9204 23.928H99.4164V23.592Z" fill="#141414"/>
<path d="M132.621 39H126.045L125.709 35.784C123.853 38.472 121.277 39.816 117.981 39.816C115.645 39.816 113.869 39.112 112.653 37.704C111.469 36.296 110.877 34.328 110.877 31.8V13.512H118.461V30.84C118.461 32.088 118.653 32.968 119.037 33.48C119.453 33.96 120.077 34.2 120.909 34.2C122.509 34.2 123.885 33.208 125.037 31.224V13.512H132.621V39Z" fill="#141414"/>
</svg>
